<svg width="194" height="194" viewBox="0 0 194 194" fill="none" xmlns="http://www.w3.org/2000/svg">
<path d="M194 97.0035C194 150.575 150.572 194.004 97 194.004C43.4284 194.004 0 150.575 0 97.0035C0 43.4319 43.4284 0.00354004 97 0.00354004C150.572 0.00354004 194 43.4319 194 97.0035Z" fill="white"/>
<path fill-rule="evenodd" clip-rule="evenodd" d="M97 192.004C149.467 192.004 192 149.471 192 97.0035C192 44.5365 149.467 2.00354 97 2.00354C44.5329 2.00354 2 44.5365 2 97.0035C2 149.471 44.5329 192.004 97 192.004ZM97 194.004C150.572 194.004 194 150.575 194 97.0035C194 43.4319 150.572 0.00354004 97 0.00354004C43.4284 0.00354004 0 43.4319 0 97.0035C0 150.575 43.4284 194.004 97 194.004Z" fill="#042C49"/>
<path d="M188 97.0035C188 147.261 147.258 188.004 97 188.004C46.7421 188.004 6 147.261 6 97.0035C6 46.7456 46.7421 6.00354 97 6.00354C147.258 6.00354 188 46.7456 188 97.0035Z" fill="white"/>
<path fill-rule="evenodd" clip-rule="evenodd" d="M97 180.004C142.84 180.004 180 142.843 180 97.0035C180 51.1639 142.84 14.0035 97 14.0035C51.1604 14.0035 14 51.1639 14 97.0035C14 142.843 51.1604 180.004 97 180.004ZM97 188.004C147.258 188.004 188 147.261 188 97.0035C188 46.7456 147.258 6.00354 97 6.00354C46.7421 6.00354 6 46.7456 6 97.0035C6 147.261 46.7421 188.004 97 188.004Z" fill="url(#paint0_linear_79_16)"/>
<path d="M44.286 124.733C43.5384 124.733 43 124.209 43 123.425V111.052C43 110.291 43.5148 109.743 44.286 109.743H45.1736C45.9212 109.743 46.6924 110.219 47.0435 110.91L50.8305 118.546V111.052C50.8305 110.291 51.3453 109.743 52.1165 109.743H52.9351C53.6826 109.743 54.221 110.267 54.221 111.052V123.425C54.221 124.185 53.7063 124.733 52.9351 124.733H52.0474C51.2998 124.733 50.5286 124.258 50.1775 123.567L46.2741 115.93V123.425C46.2741 124.185 45.7593 124.733 44.9881 124.733H44.286ZM67.7321 122.83C67.9431 123.567 67.5921 124.234 66.8445 124.472L65.8168 124.782C65.0929 124.996 64.4617 124.663 64.2507 123.9L63.6904 121.64H59.6924L59.1322 123.9C58.9685 124.637 58.3373 125.018 57.5897 124.782L56.562 124.472C55.8381 124.258 55.4634 123.593 55.6744 122.83L58.9939 111.006C59.2049 110.267 59.8598 109.745 60.631 109.745H62.7355C63.4831 109.745 64.1616 110.245 64.3726 111.006L67.7394 122.83H67.7321ZM60.4382 118.546H62.9156L61.6769 113.55L60.4382 118.546ZM72.8725 124.733C72.1249 124.733 71.4464 124.234 71.2354 123.473L67.8686 111.646C67.6576 110.91 68.0086 110.243 68.7562 110.004L69.7839 109.695C70.5078 109.48 71.139 109.814 71.3264 110.576L73.8747 120.927L76.4467 110.576C76.634 109.84 77.2652 109.458 78.0128 109.695L79.0405 110.004C79.7644 110.219 80.1391 110.884 79.9281 111.646L76.5158 123.473C76.3048 124.209 75.65 124.733 74.8788 124.733H72.8688H72.8725ZM82.6675 124.733C81.9199 124.733 81.3815 124.209 81.3815 123.425V111.052C81.3815 110.291 81.8962 109.743 82.6675 109.743H83.5551C84.3027 109.743 84.8411 110.267 84.8411 111.052V123.425C84.8411 124.185 84.3263 124.733 83.5551 124.733H82.6675ZM91.6894 124.733C91.2929 124.733 90.9873 124.448 90.9873 124.043V111.267H87.3403C86.9438 111.267 86.6618 110.982 86.6618 110.576V110.434C86.6618 110.03 86.942 109.743 87.3403 109.743H96.224C96.6205 109.743 96.9261 110.028 96.9261 110.434V110.576C96.9261 110.98 96.6224 111.267 96.224 111.267H92.577V124.045C92.577 124.448 92.2969 124.735 91.8986 124.735H91.6876L91.6894 124.733ZM101.344 113.313C103.518 113.313 104.968 114.836 104.968 117.215V118.594C104.968 118.998 104.688 119.285 104.289 119.285H98.374V120.76C98.374 122.403 99.3326 123.449 100.759 123.449H103.236C103.587 123.449 103.891 123.71 103.915 124.091C103.891 124.47 103.587 124.733 103.236 124.733H100.759C98.3267 124.733 96.9007 123.234 96.9007 120.76V117.215C96.9007 114.788 98.4195 113.313 100.711 113.313H101.343H101.344ZM103.563 118V117.167C103.563 115.597 102.605 114.597 101.343 114.597H100.711C99.4017 114.597 98.374 115.597 98.374 117.167V118H103.563ZM111.114 124.733C108.402 124.733 106.952 123.282 106.952 120.76V117.287C106.952 114.766 108.402 113.315 111.114 113.315H112.984C113.38 113.315 113.662 113.6 113.662 114.005C113.662 114.41 113.382 114.696 112.984 114.696H111.183C109.5 114.696 108.542 115.695 108.542 117.289V120.762C108.542 122.356 109.5 123.356 111.183 123.356H112.984C113.38 123.356 113.662 123.641 113.662 124.047C113.662 124.452 113.382 124.737 112.984 124.737H111.114V124.733ZM120.862 113.313C123.012 113.313 124.345 114.955 124.345 117.239V124.045C124.345 124.448 124.065 124.735 123.666 124.735H123.434C123.035 124.735 122.755 124.45 122.755 124.045V117.336C122.755 115.693 121.749 114.694 120.487 114.694H119.785C118.546 114.694 117.54 115.693 117.54 117.336V124.045C117.54 124.448 117.26 124.735 116.862 124.735H116.627C116.231 124.735 115.925 124.45 115.925 124.045V109.007C115.925 108.603 116.229 108.316 116.627 108.316H116.862C117.258 108.316 117.54 108.601 117.54 109.007V114.549C118.1 113.764 118.966 113.313 120.158 113.313H120.86H120.862ZM136.219 123.83C136.312 124.211 136.126 124.567 135.728 124.663L135.588 124.687C135.189 124.782 134.84 124.569 134.722 124.187L133.623 120.238H128.878L127.779 124.187C127.686 124.569 127.312 124.782 126.937 124.687L126.773 124.663C126.398 124.569 126.189 124.211 126.306 123.83L130.164 110.364C130.28 109.982 130.655 109.697 131.051 109.697H131.426C131.824 109.697 132.197 109.982 132.292 110.364L136.219 123.83ZM129.252 118.809H133.227L131.24 111.624L129.254 118.809H129.252ZM139.14 110.6C138.744 110.6 138.462 110.291 138.462 109.91V108.555C138.462 108.151 138.742 107.864 139.14 107.864H139.375C139.771 107.864 140.053 108.149 140.053 108.555V109.912C140.053 110.293 139.773 110.602 139.375 110.602H139.14V110.6ZM139.14 124.733C138.744 124.733 138.462 124.448 138.462 124.043V114.001C138.462 113.598 138.742 113.311 139.14 113.311H139.375C139.771 113.311 140.053 113.596 140.053 114.001V124.043C140.053 124.446 139.773 124.733 139.375 124.733H139.14ZM151.482 124.685L151.271 124.78C150.896 124.922 150.523 124.78 150.336 124.398C150.101 123.874 149.916 123.471 149.775 123.138C149.144 124.161 148.093 124.732 146.9 124.732H146.339C144.189 124.732 142.645 123.232 142.645 120.686V117.236C142.645 114.69 144.188 113.19 146.339 113.19H146.9C147.882 113.19 148.793 113.596 149.448 114.357V109.007C149.448 108.603 149.752 108.316 150.15 108.316H150.383C150.781 108.316 151.061 108.601 151.061 109.007V121.379C151.061 122.258 151.154 122.615 151.785 123.83C151.973 124.187 151.856 124.545 151.482 124.687V124.685ZM147.111 123.354C148.466 123.354 149.448 122.306 149.448 120.688V117.237C149.448 115.619 148.466 114.573 147.111 114.573H146.572C145.217 114.573 144.235 115.619 144.235 117.237V120.688C144.235 122.306 145.217 123.354 146.572 123.354H147.111Z" fill="url(#paint1_linear_79_16)"/>
<path d="M67.9431 77.6215C66.4796 79.3129 65.2148 80.8969 64.3837 82.0961L63.1912 83.5817L62.9021 83.4564C59.3246 81.9708 55.6387 80.4405 51.3927 81.3623C49.2064 82.0961 47.0292 83.6353 45.6289 85.461C45.3398 85.8368 44.9152 86.0248 44.4816 86.0248C44.1834 86.0248 43.8853 85.9353 43.6233 85.7473C43.271 85.4968 43.0542 85.1209 43.009 84.7182C42.9638 84.3244 43.0903 83.9307 43.3523 83.6353C44.0841 82.821 44.9333 81.9619 46.0264 80.9417C48.4114 78.6507 51.6817 76.7893 55.4941 75.5722C56.4066 75.259 57.3913 75.0889 58.4664 75.0442L60.2912 75.08C61.8903 75.2142 63.4261 75.5722 64.7089 75.9123C65.1877 76.0375 65.6485 76.1897 66.1092 76.3418L66.5971 76.5029C66.9223 76.6103 67.3198 76.7714 67.7805 76.9683L68.2955 77.192L67.9251 77.6126L67.9431 77.6215ZM134.082 72.4311C133.82 72.2073 133.486 72.1089 133.142 72.1268C132.799 72.1536 132.483 72.3147 132.266 72.5653L117.369 89.1212L117.269 89.2196C115.987 90.5351 114.541 92.0207 112.933 93.551L112.653 93.7836C111.171 95.2155 109.211 96.3431 107.323 96.88C107.251 96.889 107.187 96.8979 107.124 96.9069L106.961 96.9248C102.733 97.5065 99.1198 95.7972 95.6327 94.1416C94.8738 93.7836 94.124 93.4257 93.4013 93.1125C91.8564 92.3249 90.0948 91.2689 88.026 89.8818L87.8363 89.7565H87.8272C87.6375 89.6313 87.3123 89.4075 87.1045 89.2464L87.0322 89.1927C85.3157 88.0115 81.6479 85.3715 80.5638 84.5392L80.5819 84.5213L79.552 83.7517C79.037 83.349 76.2545 81.6307 73.5985 80.181L73.2913 80.0378L71.5477 81.9529L68.1058 86.1143L68.5755 86.3469C69.8764 86.9823 71.34 87.7877 72.93 88.7453L73.1287 88.8616H73.1378C73.3365 88.978 73.6617 89.1838 73.8876 89.327C74.3574 89.6134 75.577 90.5172 77.1308 91.6538C81.2865 94.6965 87.5562 99.3053 90.7452 100.71C91.7571 101.158 92.6153 101.489 93.4464 101.766C95.3888 102.375 97.5931 102.965 99.8335 102.965C100.493 102.965 101.162 102.912 101.83 102.795C102.173 102.733 102.508 102.67 102.842 102.581C105.868 101.775 108.57 100.585 110.855 99.0368C111.596 98.5356 112.228 98.0524 112.779 97.5691C113.041 97.3454 113.303 97.1127 113.565 96.88L113.927 96.5579C114.794 95.824 119.989 90.2577 121.118 88.7453L134.263 74.2388C134.723 73.7018 134.66 72.8875 134.118 72.44L134.082 72.4311ZM143.233 90.4098C143.568 90.6962 143.757 91.09 143.757 91.5106C143.757 91.9222 143.586 92.316 143.279 92.5845C142.646 93.1393 141.942 93.721 141.137 94.3474C140.568 94.8128 139.918 95.2603 139.159 95.7346C136.819 97.1933 134.073 98.2851 131.019 98.9741C130.685 99.0547 130.342 99.1084 130.007 99.1531C129.502 99.2247 128.987 99.2516 128.481 99.2516C126.078 99.2516 123.72 98.5356 121.669 97.8018C120.838 97.4975 119.998 97.1306 119.004 96.6474C118.498 96.4057 117.911 96.0657 117.197 95.6182L116.772 95.3497L117.116 94.9828C119.302 92.674 120.937 90.8304 121.615 89.9355L122.193 89.2822L122.482 89.4254C123.033 89.7028 123.584 89.9892 124.144 90.2756C127.568 92.0565 131.11 93.9089 135.365 93.4883H135.527C135.6 93.4704 135.663 93.4615 135.735 93.4525C137.641 92.9872 139.647 91.9312 141.183 90.562L141.327 90.4367C141.851 89.9534 142.673 89.9355 143.233 90.4098ZM148.274 82.6599C147.245 82.6241 146.242 82.9731 145.483 83.6711C144.715 84.3692 144.272 85.3178 144.227 86.338C144.182 87.3671 144.543 88.3515 145.248 89.1033C145.953 89.855 146.91 90.3024 147.94 90.3472C147.994 90.3472 148.058 90.3472 148.112 90.3472C150.181 90.3472 151.897 88.7274 151.996 86.6691C152.087 84.5482 150.425 82.7494 148.283 82.6599H148.274ZM117.685 86.857C116.52 86.159 114.288 84.754 112.427 83.4027L112.246 83.2684H112.237C112.048 83.1342 111.731 82.9015 111.533 82.7315L111.46 82.6778C109.753 81.3981 106.23 78.6596 105.182 77.7826L105.209 77.7647L104.206 76.9593C103.384 76.2523 96.6445 71.8225 93.8349 70.7755L93.3471 70.5965C92.8863 70.4264 92.4346 70.2564 91.9648 70.1132C90.691 69.7284 89.1733 69.3078 87.5833 69.1109L85.9301 69.0035C84.7647 69.0035 83.7438 69.1288 82.7681 69.4241C78.9105 70.498 75.5679 72.2342 73.1016 74.4357C72.3789 75.0531 71.6652 75.7154 70.9605 76.3955L70.5269 76.8161C70.4546 76.8877 70.3824 76.9504 70.3191 77.0219C70.2739 77.0667 70.2468 77.1114 70.2288 77.1472C67.9973 79.5277 65.8292 82.1408 64.5644 83.9575L50.4079 101.99C49.9833 102.527 50.0737 103.306 50.6157 103.735C50.8416 103.914 51.1216 104.004 51.3927 104.004C51.7631 104.004 52.1244 103.842 52.3774 103.538L69.4428 82.3288L70.9967 80.6195C71.7736 79.7693 72.4512 79.0266 72.5144 78.946C73.987 77.1741 76.2184 75.7243 78.4317 75.071C82.7049 74.3104 86.3456 75.9839 89.878 77.6126C90.6278 77.9616 91.3776 78.3017 92.1003 78.6059C93.6271 79.3666 95.3617 80.3779 97.3943 81.7113L97.5841 81.8366H97.5931C97.7828 81.9529 98.108 82.1766 98.3249 82.3377C98.7766 82.642 99.9962 83.6085 101.541 84.8345C104.441 87.1345 108.407 90.2845 111.569 92.4681L112.129 92.8887L112.517 92.5039C113.638 91.4032 114.659 90.3472 115.571 89.4075L117.685 86.8749V86.857Z" fill="url(#paint2_linear_79_16)"/>
<defs>
<linearGradient id="paint0_linear_79_16" x1="6.01503" y1="96.9803" x2="187.979" y2="96.9803" gradientUnits="userSpaceOnUse">
<stop stop-color="#2670DB"/>
<stop offset="0.19" stop-color="#007E88"/>
<stop offset="0.53" stop-color="#61C9BF"/>
<stop offset="0.75" stop-color="#A2D63C"/>
<stop offset="1" stop-color="#FBBD12"/>
</linearGradient>
<linearGradient id="paint1_linear_79_16" x1="43.009" y1="116.356" x2="151.861" y2="116.356" gradientUnits="userSpaceOnUse">
<stop stop-color="#2670DB"/>
<stop offset="0.19" stop-color="#007E88"/>
<stop offset="0.53" stop-color="#61C9BF"/>
<stop offset="0.75" stop-color="#A2D63C"/>
<stop offset="1" stop-color="#FBBD12"/>
</linearGradient>
<linearGradient id="paint2_linear_79_16" x1="43.009" y1="86.4991" x2="151.987" y2="86.4991" gradientUnits="userSpaceOnUse">
<stop stop-color="#2670DB"/>
<stop offset="0.19" stop-color="#007E88"/>
<stop offset="0.53" stop-color="#61C9BF"/>
<stop offset="0.75" stop-color="#A2D63C"/>
<stop offset="1" stop-color="#FBBD12"/>
</linearGradient>
</defs>
</svg>
